name rise49.8558peak67.6521fall70.3087.mot
datacolumns 19
datarows 30
range 3.54998900000000 3.59831800000000
endheader
time	ground_force1_vx	ground_force1_vy	ground_force1_vz	ground_force1_px	ground_force1_py	ground_force1_pz	ground_force2_vx	ground_force2_vy	ground_force2_vz	ground_force2_px	ground_force2_py	ground_force2_pz	ground_torque1_x	ground_torque1_y	ground_torque1_z	ground_torque2_x	ground_torque2_y	ground_torque2_z	
3.54998900000000	20.23619600000000	693.10597700000005	35.90653200000000	0.24632000000000	0.00000000000000	0.07353700000000	0.00000000000000	0.00000000000000	0.00000000000000	0.00000000000000	0.00000000000000	0.00000000000000	0.00000000000000	14.24956500000000	0.00000000000000	0.00000000000000	0.00000000000000	0.00000000000000	
3.55164900000000	19.94748100000000	693.56792399999995	36.03079200000000	0.24595500000000	0.00000000000000	0.07352600000000	0.00000000000000	0.00000000000000	0.00000000000000	0.00000000000000	0.00000000000000	0.00000000000000	0.00000000000000	14.33880300000000	0.00000000000000	0.00000000000000	0.00000000000000	0.00000000000000	
3.55331700000000	19.64739800000000	694.06643899999995	36.15675800000000	0.24557300000000	0.00000000000000	0.07351600000000	0.00000000000000	0.00000000000000	0.00000000000000	0.00000000000000	0.00000000000000	0.00000000000000	0.00000000000000	14.43060400000000	0.00000000000000	0.00000000000000	0.00000000000000	0.00000000000000	
3.55498400000000	19.33543300000000	694.59971900000005	36.28403400000000	0.24517000000000	0.00000000000000	0.07350700000000	0.00000000000000	0.00000000000000	0.00000000000000	0.00000000000000	0.00000000000000	0.00000000000000	0.00000000000000	14.52468500000000	0.00000000000000	0.00000000000000	0.00000000000000	0.00000000000000	
3.55665700000000	19.01110300000000	695.16599499999995	36.41224200000000	0.24474400000000	0.00000000000000	0.07349900000000	0.00000000000000	0.00000000000000	0.00000000000000	0.00000000000000	0.00000000000000	0.00000000000000	0.00000000000000	14.62077900000000	0.00000000000000	0.00000000000000	0.00000000000000	0.00000000000000	
3.55832300000000	18.67395400000000	695.76353099999994	36.54102600000000	0.24429300000000	0.00000000000000	0.07349300000000	0.00000000000000	0.00000000000000	0.00000000000000	0.00000000000000	0.00000000000000	0.00000000000000	0.00000000000000	14.71862900000000	0.00000000000000	0.00000000000000	0.00000000000000	0.00000000000000	
3.55998600000000	18.32356400000000	696.39063499999997	36.67004600000000	0.24381300000000	0.00000000000000	0.07348800000000	0.00000000000000	0.00000000000000	0.00000000000000	0.00000000000000	0.00000000000000	0.00000000000000	0.00000000000000	14.81799400000000	0.00000000000000	0.00000000000000	0.00000000000000	0.00000000000000	
3.56165500000000	17.95954200000000	697.04566199999999	36.79898400000000	0.24330400000000	0.00000000000000	0.07348400000000	0.00000000000000	0.00000000000000	0.00000000000000	0.00000000000000	0.00000000000000	0.00000000000000	0.00000000000000	14.91864700000000	0.00000000000000	0.00000000000000	0.00000000000000	0.00000000000000	
3.56331600000000	17.58153200000000	697.72702200000003	36.92754300000000	0.24276400000000	0.00000000000000	0.07348100000000	0.00000000000000	0.00000000000000	0.00000000000000	0.00000000000000	0.00000000000000	0.00000000000000	0.00000000000000	15.02037700000000	0.00000000000000	0.00000000000000	0.00000000000000	0.00000000000000	
3.56499000000000	17.18921100000000	698.43318599999998	37.05544500000000	0.24219000000000	0.00000000000000	0.07348100000000	0.00000000000000	0.00000000000000	0.00000000000000	0.00000000000000	0.00000000000000	0.00000000000000	0.00000000000000	15.12298700000000	0.00000000000000	0.00000000000000	0.00000000000000	0.00000000000000	
3.56665500000000	16.78228800000000	699.16268900000000	37.18243100000000	0.24158200000000	0.00000000000000	0.07348200000000	0.00000000000000	0.00000000000000	0.00000000000000	0.00000000000000	0.00000000000000	0.00000000000000	0.00000000000000	15.22629800000000	0.00000000000000	0.00000000000000	0.00000000000000	0.00000000000000	
3.56832100000000	16.36050900000000	699.91413699999998	37.30826600000000	0.24093800000000	0.00000000000000	0.07348500000000	0.00000000000000	0.00000000000000	0.00000000000000	0.00000000000000	0.00000000000000	0.00000000000000	0.00000000000000	15.33014500000000	0.00000000000000	0.00000000000000	0.00000000000000	0.00000000000000	
3.56998900000000	15.92365400000000	700.68621199999995	37.43273200000000	0.24025800000000	0.00000000000000	0.07348900000000	0.00000000000000	0.00000000000000	0.00000000000000	0.00000000000000	0.00000000000000	0.00000000000000	0.00000000000000	15.43438100000000	0.00000000000000	0.00000000000000	0.00000000000000	0.00000000000000	
3.57165700000000	15.47153700000000	701.47767399999998	37.55563400000000	0.23954000000000	0.00000000000000	0.07349600000000	0.00000000000000	0.00000000000000	0.00000000000000	0.00000000000000	0.00000000000000	0.00000000000000	0.00000000000000	15.53887500000000	0.00000000000000	0.00000000000000	0.00000000000000	0.00000000000000	
3.57332400000000	15.00400700000000	702.28737100000001	37.67679800000000	0.23878500000000	0.00000000000000	0.07350500000000	0.00000000000000	0.00000000000000	0.00000000000000	0.00000000000000	0.00000000000000	0.00000000000000	0.00000000000000	15.64351300000000	0.00000000000000	0.00000000000000	0.00000000000000	0.00000000000000	
3.57499000000000	14.52094900000000	703.11423500000001	37.79606800000000	0.23799200000000	0.00000000000000	0.07351500000000	0.00000000000000	0.00000000000000	0.00000000000000	0.00000000000000	0.00000000000000	0.00000000000000	0.00000000000000	15.74819700000000	0.00000000000000	0.00000000000000	0.00000000000000	0.00000000000000	
3.57665200000000	14.02228100000000	703.95729300000005	37.91331200000000	0.23716000000000	0.00000000000000	0.07352800000000	0.00000000000000	0.00000000000000	0.00000000000000	0.00000000000000	0.00000000000000	0.00000000000000	0.00000000000000	15.85284600000000	0.00000000000000	0.00000000000000	0.00000000000000	0.00000000000000	
3.57832100000000	13.50795600000000	704.81566499999997	38.02841700000000	0.23629200000000	0.00000000000000	0.07354200000000	0.00000000000000	0.00000000000000	0.00000000000000	0.00000000000000	0.00000000000000	0.00000000000000	0.00000000000000	15.95739300000000	0.00000000000000	0.00000000000000	0.00000000000000	0.00000000000000	
3.57998300000000	12.97795900000000	705.68857100000002	38.14129100000000	0.23538600000000	0.00000000000000	0.07355800000000	0.00000000000000	0.00000000000000	0.00000000000000	0.00000000000000	0.00000000000000	0.00000000000000	0.00000000000000	16.06178700000000	0.00000000000000	0.00000000000000	0.00000000000000	0.00000000000000	
3.58165600000000	12.43231000000000	706.57532800000001	38.25186200000000	0.23444300000000	0.00000000000000	0.07357600000000	0.00000000000000	0.00000000000000	0.00000000000000	0.00000000000000	0.00000000000000	0.00000000000000	0.00000000000000	16.16599500000000	0.00000000000000	0.00000000000000	0.00000000000000	0.00000000000000	
3.58331900000000	11.87106100000000	707.47535700000003	38.36008000000000	0.23346500000000	0.00000000000000	0.07359600000000	0.00000000000000	0.00000000000000	0.00000000000000	0.00000000000000	0.00000000000000	0.00000000000000	0.00000000000000	16.26999500000000	0.00000000000000	0.00000000000000	0.00000000000000	0.00000000000000	
3.58499600000000	11.29429500000000	708.38818300000003	38.46591300000000	0.23245300000000	0.00000000000000	0.07361800000000	0.00000000000000	0.00000000000000	0.00000000000000	0.00000000000000	0.00000000000000	0.00000000000000	0.00000000000000	16.37378000000000	0.00000000000000	0.00000000000000	0.00000000000000	0.00000000000000	
3.58665200000000	10.70212800000000	709.31343400000003	38.56935300000000	0.23140700000000	0.00000000000000	0.07364200000000	0.00000000000000	0.00000000000000	0.00000000000000	0.00000000000000	0.00000000000000	0.00000000000000	0.00000000000000	16.47735800000000	0.00000000000000	0.00000000000000	0.00000000000000	0.00000000000000	
3.58831800000000	10.09470300000000	710.25084300000003	38.67040900000000	0.23032900000000	0.00000000000000	0.07366700000000	0.00000000000000	0.00000000000000	0.00000000000000	0.00000000000000	0.00000000000000	0.00000000000000	0.00000000000000	16.58074700000000	0.00000000000000	0.00000000000000	0.00000000000000	0.00000000000000	
3.58998300000000	9.47219500000000	711.20024699999999	38.76911200000000	0.22922100000000	0.00000000000000	0.07369300000000	0.00000000000000	0.00000000000000	0.00000000000000	0.00000000000000	0.00000000000000	0.00000000000000	0.00000000000000	16.68397700000000	0.00000000000000	0.00000000000000	0.00000000000000	0.00000000000000	
3.59164900000000	8.83480700000000	712.16158900000005	38.86551300000000	0.22808400000000	0.00000000000000	0.07372100000000	0.00000000000000	0.00000000000000	0.00000000000000	0.00000000000000	0.00000000000000	0.00000000000000	0.00000000000000	16.78709100000000	0.00000000000000	0.00000000000000	0.00000000000000	0.00000000000000	
3.59332200000000	8.18276600000000	713.13491299999998	38.95968300000000	0.22692000000000	0.00000000000000	0.07375100000000	0.00000000000000	0.00000000000000	0.00000000000000	0.00000000000000	0.00000000000000	0.00000000000000	0.00000000000000	16.89013900000000	0.00000000000000	0.00000000000000	0.00000000000000	0.00000000000000	
3.59499700000000	7.51633000000000	714.12036499999999	39.05171200000000	0.22573200000000	0.00000000000000	0.07378100000000	0.00000000000000	0.00000000000000	0.00000000000000	0.00000000000000	0.00000000000000	0.00000000000000	0.00000000000000	16.99318100000000	0.00000000000000	0.00000000000000	0.00000000000000	0.00000000000000	
3.59665200000000	6.83577700000000	715.11819000000003	39.14171000000000	0.22452000000000	0.00000000000000	0.07381300000000	0.00000000000000	0.00000000000000	0.00000000000000	0.00000000000000	0.00000000000000	0.00000000000000	0.00000000000000	17.09628500000000	0.00000000000000	0.00000000000000	0.00000000000000	0.00000000000000	
3.59831800000000	6.14141300000000	716.12872700000003	39.22980700000000	0.22328800000000	0.00000000000000	0.07384500000000	0.00000000000000	0.00000000000000	0.00000000000000	0.00000000000000	0.00000000000000	0.00000000000000	0.00000000000000	17.19952600000000	0.00000000000000	0.00000000000000	0.00000000000000	0.00000000000000	
